<mxfile host="app.diagrams.net" modified="2023-12-14T06:03:04.252Z" agent="Mozilla/5.0 (Windows NT 10.0; Win64; x64) AppleWebKit/537.36 (KHTML, like Gecko) Chrome/118.0.5993.731 YaBrowser/23.11.1.731 Yowser/2.5 Safari/537.36" etag="4Ep_5wM0hcOSOsy0oyKN" version="22.1.8" type="device">
  <diagram name="Страница — 1" id="cFuSS7QKAt1AiNt9xKHw">
    <mxGraphModel dx="696" dy="313" grid="1" gridSize="10" guides="1" tooltips="1" connect="1" arrows="1" fold="1" page="1" pageScale="1" pageWidth="827" pageHeight="1169" math="0" shadow="0">
      <root>
        <mxCell id="0" />
        <mxCell id="1" parent="0" />
        <mxCell id="e_HS2HajH7sfMlvskivI-38" style="edgeStyle=orthogonalEdgeStyle;rounded=0;orthogonalLoop=1;jettySize=auto;html=1;exitX=0.5;exitY=1;exitDx=0;exitDy=0;entryX=0.5;entryY=0;entryDx=0;entryDy=0;fontSize=18;" parent="1" source="e_HS2HajH7sfMlvskivI-39" target="e_HS2HajH7sfMlvskivI-40" edge="1">
          <mxGeometry relative="1" as="geometry" />
        </mxCell>
        <mxCell id="e_HS2HajH7sfMlvskivI-39" value="&lt;font style=&quot;font-size: 18px;&quot;&gt;НАЧАЛО&lt;/font&gt;" style="rounded=1;whiteSpace=wrap;html=1;fontSize=18;" parent="1" vertex="1">
          <mxGeometry x="340" y="30" width="144" height="60" as="geometry" />
        </mxCell>
        <mxCell id="e_HS2HajH7sfMlvskivI-44" style="edgeStyle=orthogonalEdgeStyle;rounded=0;orthogonalLoop=1;jettySize=auto;html=1;exitX=0.5;exitY=1;exitDx=0;exitDy=0;" parent="1" source="e_HS2HajH7sfMlvskivI-40" target="e_HS2HajH7sfMlvskivI-43" edge="1">
          <mxGeometry relative="1" as="geometry" />
        </mxCell>
        <mxCell id="e_HS2HajH7sfMlvskivI-40" value="&lt;font style=&quot;font-size: 18px;&quot;&gt;Ввод s&lt;/font&gt;" style="shape=parallelogram;perimeter=parallelogramPerimeter;whiteSpace=wrap;html=1;fixedSize=1;fontSize=18;" parent="1" vertex="1">
          <mxGeometry x="340" y="118" width="150" height="60" as="geometry" />
        </mxCell>
        <mxCell id="e_HS2HajH7sfMlvskivI-55" style="edgeStyle=orthogonalEdgeStyle;rounded=0;orthogonalLoop=1;jettySize=auto;html=1;exitX=0.5;exitY=1;exitDx=0;exitDy=0;" parent="1" source="e_HS2HajH7sfMlvskivI-43" target="e_HS2HajH7sfMlvskivI-53" edge="1">
          <mxGeometry relative="1" as="geometry" />
        </mxCell>
        <mxCell id="e_HS2HajH7sfMlvskivI-43" value="&lt;font style=&quot;font-size: 18px;&quot;&gt;c = длина строки&lt;/font&gt;" style="rounded=0;whiteSpace=wrap;html=1;fontSize=18;" parent="1" vertex="1">
          <mxGeometry x="350" y="220" width="130" height="60" as="geometry" />
        </mxCell>
        <mxCell id="e_HS2HajH7sfMlvskivI-50" style="edgeStyle=orthogonalEdgeStyle;rounded=0;orthogonalLoop=1;jettySize=auto;html=1;exitX=0.5;exitY=1;exitDx=0;exitDy=0;" parent="1" edge="1">
          <mxGeometry relative="1" as="geometry">
            <mxPoint x="411.68965517241395" y="740" as="targetPoint" />
            <mxPoint x="412" y="690" as="sourcePoint" />
          </mxGeometry>
        </mxCell>
        <mxCell id="e_HS2HajH7sfMlvskivI-51" value="НЕТ" style="edgeLabel;html=1;align=center;verticalAlign=middle;resizable=0;points=[];" parent="e_HS2HajH7sfMlvskivI-50" vertex="1" connectable="0">
          <mxGeometry x="-0.2024" y="-2" relative="1" as="geometry">
            <mxPoint as="offset" />
          </mxGeometry>
        </mxCell>
        <mxCell id="e_HS2HajH7sfMlvskivI-62" style="edgeStyle=orthogonalEdgeStyle;rounded=0;orthogonalLoop=1;jettySize=auto;html=1;exitX=1;exitY=0.5;exitDx=0;exitDy=0;entryX=0.5;entryY=0;entryDx=0;entryDy=0;" parent="1" source="e_HS2HajH7sfMlvskivI-47" target="e_HS2HajH7sfMlvskivI-61" edge="1">
          <mxGeometry relative="1" as="geometry">
            <Array as="points">
              <mxPoint x="520" y="645" />
              <mxPoint x="520" y="855" />
              <mxPoint x="425" y="855" />
            </Array>
            <mxPoint x="500" y="640" as="sourcePoint" />
          </mxGeometry>
        </mxCell>
        <mxCell id="e_HS2HajH7sfMlvskivI-63" value="ДА" style="edgeLabel;html=1;align=center;verticalAlign=middle;resizable=0;points=[];" parent="e_HS2HajH7sfMlvskivI-62" vertex="1" connectable="0">
          <mxGeometry x="-0.3628" y="1" relative="1" as="geometry">
            <mxPoint as="offset" />
          </mxGeometry>
        </mxCell>
        <mxCell id="e_HS2HajH7sfMlvskivI-47" value="&lt;font style=&quot;font-size: 16px;&quot;&gt;s от i = &lt;br&gt;s от c-i+1&lt;br&gt;&lt;/font&gt;" style="rhombus;whiteSpace=wrap;html=1;fontSize=18;" parent="1" vertex="1">
          <mxGeometry x="337" y="600" width="150" height="90" as="geometry" />
        </mxCell>
        <mxCell id="e_HS2HajH7sfMlvskivI-52" value="&lt;font style=&quot;font-size: 18px;&quot;&gt;a = false&lt;/font&gt;" style="rounded=0;whiteSpace=wrap;html=1;fontSize=18;" parent="1" vertex="1">
          <mxGeometry x="352" y="740" width="120" height="60" as="geometry" />
        </mxCell>
        <mxCell id="e_HS2HajH7sfMlvskivI-74" style="edgeStyle=orthogonalEdgeStyle;rounded=0;orthogonalLoop=1;jettySize=auto;html=1;exitX=0.5;exitY=1;exitDx=0;exitDy=0;" parent="1" source="e_HS2HajH7sfMlvskivI-53" edge="1">
          <mxGeometry relative="1" as="geometry">
            <mxPoint x="415" y="440" as="targetPoint" />
          </mxGeometry>
        </mxCell>
        <mxCell id="e_HS2HajH7sfMlvskivI-53" value="a = true" style="rounded=0;whiteSpace=wrap;html=1;fontSize=18;" parent="1" vertex="1">
          <mxGeometry x="350" y="317" width="130" height="60" as="geometry" />
        </mxCell>
        <mxCell id="e_HS2HajH7sfMlvskivI-64" style="edgeStyle=orthogonalEdgeStyle;rounded=0;orthogonalLoop=1;jettySize=auto;html=1;exitX=1;exitY=0.5;exitDx=0;exitDy=0;entryX=0.5;entryY=0;entryDx=0;entryDy=0;" parent="1" source="e_HS2HajH7sfMlvskivI-61" target="e_HS2HajH7sfMlvskivI-65" edge="1">
          <mxGeometry relative="1" as="geometry">
            <mxPoint x="530" y="995" as="targetPoint" />
          </mxGeometry>
        </mxCell>
        <mxCell id="e_HS2HajH7sfMlvskivI-61" value="&lt;font style=&quot;font-size: 16px;&quot;&gt;a = true&lt;br&gt;&lt;/font&gt;" style="rhombus;whiteSpace=wrap;html=1;fontSize=18;" parent="1" vertex="1">
          <mxGeometry x="350" y="866.51" width="150" height="90" as="geometry" />
        </mxCell>
        <mxCell id="e_HS2HajH7sfMlvskivI-73" style="edgeStyle=orthogonalEdgeStyle;rounded=0;orthogonalLoop=1;jettySize=auto;html=1;exitX=0.5;exitY=1;exitDx=0;exitDy=0;entryX=0.5;entryY=0;entryDx=0;entryDy=0;" parent="1" source="e_HS2HajH7sfMlvskivI-65" target="e_HS2HajH7sfMlvskivI-70" edge="1">
          <mxGeometry relative="1" as="geometry" />
        </mxCell>
        <mxCell id="e_HS2HajH7sfMlvskivI-65" value="&lt;font style=&quot;font-size: 18px;&quot;&gt;Вывод&amp;nbsp;&lt;br&gt;не палиндром&lt;br&gt;&lt;/font&gt;" style="shape=parallelogram;perimeter=parallelogramPerimeter;whiteSpace=wrap;html=1;fixedSize=1;fontSize=18;" parent="1" vertex="1">
          <mxGeometry x="460" y="985" width="150" height="60" as="geometry" />
        </mxCell>
        <mxCell id="e_HS2HajH7sfMlvskivI-68" style="edgeStyle=orthogonalEdgeStyle;rounded=0;orthogonalLoop=1;jettySize=auto;html=1;exitX=0;exitY=0.5;exitDx=0;exitDy=0;entryX=0.5;entryY=0;entryDx=0;entryDy=0;" parent="1" source="e_HS2HajH7sfMlvskivI-61" target="e_HS2HajH7sfMlvskivI-69" edge="1">
          <mxGeometry relative="1" as="geometry">
            <mxPoint x="350" y="993" as="targetPoint" />
            <mxPoint x="320" y="910" as="sourcePoint" />
          </mxGeometry>
        </mxCell>
        <mxCell id="e_HS2HajH7sfMlvskivI-71" style="edgeStyle=orthogonalEdgeStyle;rounded=0;orthogonalLoop=1;jettySize=auto;html=1;exitX=0.5;exitY=1;exitDx=0;exitDy=0;entryX=0.5;entryY=0;entryDx=0;entryDy=0;" parent="1" source="e_HS2HajH7sfMlvskivI-69" target="e_HS2HajH7sfMlvskivI-70" edge="1">
          <mxGeometry relative="1" as="geometry" />
        </mxCell>
        <mxCell id="e_HS2HajH7sfMlvskivI-69" value="Вывод&amp;nbsp;&lt;br&gt;палиндром" style="shape=parallelogram;perimeter=parallelogramPerimeter;whiteSpace=wrap;html=1;fixedSize=1;fontSize=18;" parent="1" vertex="1">
          <mxGeometry x="250" y="985" width="150" height="60" as="geometry" />
        </mxCell>
        <mxCell id="e_HS2HajH7sfMlvskivI-70" value="КОНЕЦ" style="rounded=1;whiteSpace=wrap;html=1;fontSize=18;" parent="1" vertex="1">
          <mxGeometry x="352" y="1085" width="144" height="60" as="geometry" />
        </mxCell>
        <mxCell id="7CDMrc-y_iHInSQ9wVdQ-2" style="edgeStyle=orthogonalEdgeStyle;rounded=0;orthogonalLoop=1;jettySize=auto;html=1;exitX=0.5;exitY=1;exitDx=0;exitDy=0;entryX=0.5;entryY=0;entryDx=0;entryDy=0;" edge="1" parent="1" source="7CDMrc-y_iHInSQ9wVdQ-1" target="e_HS2HajH7sfMlvskivI-47">
          <mxGeometry relative="1" as="geometry" />
        </mxCell>
        <mxCell id="7CDMrc-y_iHInSQ9wVdQ-1" value="i = 1&lt;br&gt;c div 2" style="rounded=0;whiteSpace=wrap;html=1;fontSize=18;" vertex="1" parent="1">
          <mxGeometry x="347" y="440" width="130" height="60" as="geometry" />
        </mxCell>
      </root>
    </mxGraphModel>
  </diagram>
</mxfile>
